<svg width="456" height="259" viewBox="0 0 456 259" fill="none" xmlns="http://www.w3.org/2000/svg">
<path d="M358.809 49.9656H126.096V40.6967C126.097 37.9829 127.167 35.3803 129.07 33.4615C130.973 31.5425 133.555 30.4641 136.247 30.4635H355.708C355.334 32.3019 355.147 34.1736 355.145 36.0502C355.145 36.1297 355.145 36.1993 355.145 36.2763H162.486V44.0733H356.128L356.315 44.0204C356.927 46.0885 357.763 48.0823 358.809 49.9656Z" fill="#CCEFF6"/>
<path d="M252.702 201.934C254.189 201.934 255.643 202.379 256.879 203.212C258.116 204.045 259.082 205.228 259.65 206.614C260.219 207.999 260.37 209.523 260.08 210.994C259.79 212.464 259.072 213.815 258.02 214.875C256.969 215.935 255.629 216.659 254.171 216.951C252.711 217.244 251.2 217.092 249.826 216.518C248.452 215.945 247.276 214.973 246.452 213.725C245.626 212.478 245.185 211.012 245.185 209.513C245.187 207.504 245.979 205.576 247.389 204.157C248.797 202.735 250.708 201.936 252.702 201.934Z" fill="#F7CEDC"/>
<path d="M388.331 87.993V175.295C386.547 176.068 384.812 176.951 383.137 177.94L379.217 176.603L379.318 176.297V71.403L388.331 87.993Z" fill="#F7CEDC"/>
<path d="M388.331 70.0491V87.9931L379.316 71.3984V67.2859C382.232 68.4818 385.249 69.4069 388.331 70.0491Z" fill="#006B99"/>
<path d="M370.904 223.335H354.464L362.143 195.693H367.192C365.868 199.008 365.187 202.546 365.183 206.119C365.231 212.324 367.234 218.354 370.904 223.335Z" fill="#006B99"/>
<path d="M362.149 195.693L354.469 223.335H130.774C127.142 223.335 123.66 221.88 121.092 219.291C118.524 216.703 117.081 213.192 117.081 209.53V143.601L126.096 131.993V185.461C126.097 188.174 127.166 190.777 129.07 192.695C130.973 194.615 133.554 195.693 136.246 195.693H362.149ZM260.234 209.513C260.236 208.014 259.795 206.548 258.969 205.299C258.143 204.053 256.969 203.081 255.595 202.506C254.221 201.932 252.71 201.78 251.25 202.073C249.79 202.365 248.45 203.087 247.399 204.147C246.345 205.205 245.63 206.556 245.338 208.028C245.047 209.498 245.194 211.023 245.763 212.409C246.332 213.794 247.295 214.979 248.532 215.812C249.767 216.647 251.221 217.092 252.71 217.093C254.704 217.093 256.616 216.293 258.024 214.873C259.435 213.451 260.227 211.523 260.229 209.513H260.234Z" fill="#F7CEDC"/>
<path d="M358.908 75.6289C359.439 75.6158 359.965 75.7097 360.458 75.905C360.952 76.1003 361.4 76.3931 361.78 76.766C362.16 77.139 362.46 77.5848 362.666 78.077C362.872 78.5693 362.979 79.0984 362.979 79.6314C362.979 80.1663 362.872 80.6954 362.666 81.1879C362.46 81.6785 362.16 82.1249 361.78 82.4981C361.4 82.8714 360.952 83.1639 360.458 83.3582C359.965 83.5544 359.439 83.6487 358.908 83.6352H267.373C266.589 83.6372 265.82 83.4024 265.165 82.9638C264.513 82.5232 264.001 81.8979 263.702 81.1667C263.4 80.4337 263.322 79.6295 263.476 78.8522C263.631 78.0751 264.009 77.3618 264.566 76.8025C264.933 76.4287 265.371 76.1324 265.852 75.931C266.335 75.7293 266.852 75.6268 267.373 75.6289H358.908Z" fill="#CCEFF6"/>
<path d="M358.91 92.7473C359.964 92.7473 360.973 93.1706 361.717 93.921C362.463 94.6713 362.881 95.691 362.881 96.7531C362.881 97.8151 362.463 98.8329 361.717 99.5833C360.973 100.336 359.964 100.757 358.91 100.757H221.063C220.01 100.755 219 100.332 218.254 99.5794C217.51 98.8291 217.09 97.8094 217.09 96.7473C217.094 95.6872 217.514 94.6713 218.258 93.921C219.004 93.1725 220.012 92.7512 221.063 92.7473H358.91Z" fill="#006B99"/>
<path d="M358.908 109.869C359.439 109.855 359.966 109.95 360.458 110.146C360.952 110.34 361.401 110.633 361.78 111.006C362.158 111.379 362.46 111.826 362.666 112.316C362.872 112.809 362.977 113.338 362.977 113.873C362.977 114.406 362.872 114.935 362.666 115.427C362.46 115.92 362.158 116.364 361.78 116.738C361.401 117.111 360.952 117.403 360.458 117.6C359.966 117.794 359.439 117.888 358.908 117.875H313.686C312.63 117.875 311.621 117.453 310.875 116.701C310.13 115.951 309.712 114.931 309.711 113.869C309.712 112.807 310.132 111.789 310.877 111.041C311.623 110.29 312.632 109.869 313.686 109.869H358.908Z" fill="#CCEFF6"/>
<path d="M358.91 126.981C359.964 126.981 360.973 127.402 361.717 128.153C362.464 128.905 362.881 129.923 362.881 130.985C362.881 132.047 362.464 133.065 361.717 133.817C360.973 134.567 359.964 134.989 358.91 134.989H213.346C212.292 134.989 211.281 134.565 210.537 133.813C209.79 133.063 209.371 132.043 209.371 130.981C209.374 129.919 209.794 128.903 210.54 128.153C211.285 127.404 212.294 126.983 213.346 126.981H358.91Z" fill="#006B99"/>
<path d="M358.908 144.108C359.944 144.135 360.931 144.568 361.654 145.315C362.378 146.063 362.784 147.068 362.784 148.112C362.784 149.157 362.378 150.161 361.654 150.908C360.931 151.656 359.944 152.089 358.908 152.116H282.812C281.759 152.114 280.749 151.693 280.003 150.941C279.257 150.19 278.837 149.17 278.837 148.108C278.839 147.046 279.261 146.03 280.005 145.28C280.751 144.532 281.761 144.11 282.812 144.108H358.908Z" fill="#CCEFF6"/>
<path d="M358.91 161.228C359.439 161.215 359.967 161.309 360.46 161.503C360.952 161.7 361.402 161.992 361.78 162.365C362.16 162.739 362.462 163.183 362.668 163.676C362.874 164.168 362.979 164.697 362.979 165.23C362.979 165.765 362.874 166.294 362.668 166.787C362.462 167.277 362.16 167.724 361.78 168.097C361.402 168.47 360.952 168.763 360.46 168.957C359.967 169.153 359.439 169.247 358.91 169.234H336.842C335.788 169.234 334.777 168.811 334.033 168.06C333.288 167.308 332.869 166.29 332.869 165.226C332.87 164.166 333.29 163.15 334.036 162.4C334.781 161.65 335.79 161.228 336.842 161.228H358.91Z" fill="#006B99"/>
<path d="M358.91 178.346C359.964 178.346 360.973 178.769 361.717 179.52C362.464 180.27 362.882 181.29 362.882 182.352C362.882 183.412 362.464 184.432 361.717 185.182C360.973 185.932 359.964 186.356 358.91 186.356H236.502C235.448 186.354 234.437 185.93 233.691 185.18C232.947 184.428 232.527 183.408 232.525 182.346C232.531 181.286 232.95 180.268 233.697 179.52C234.441 178.769 235.45 178.348 236.502 178.346H358.91Z" fill="#CCEFF6"/>
<path d="M359.217 58.5393L355.366 66.5166H236.502C235.448 66.5166 234.439 66.0948 233.693 65.3439C232.948 64.5928 232.53 63.5744 232.53 62.5124C232.53 61.4503 232.948 60.4317 233.693 59.6808C234.439 58.9299 235.448 58.5079 236.502 58.5079H358.91C359.017 58.5079 359.11 58.532 359.217 58.5393Z" fill="#006B99"/>
<path d="M130.774 23.8323H357.922C356.92 25.9439 356.177 28.1705 355.708 30.463H136.246C133.554 30.4635 130.973 31.5419 129.07 33.4609C127.166 35.3799 126.097 37.9823 126.096 40.6961V73.3634C123.299 71.2741 120.275 69.5142 117.081 68.1179V37.637C117.081 35.8242 117.436 34.0291 118.124 32.3543C118.812 30.6794 119.82 29.1575 121.092 27.8756C122.363 26.5938 123.873 25.577 125.534 24.8832C127.195 24.1894 128.976 23.8323 130.774 23.8323Z" fill="#F7CEDC"/>
<path d="M356.317 44.0201L356.13 44.073H162.486V36.276H355.154C355.17 38.9003 355.561 41.5087 356.317 44.0201Z" fill="#006B99"/>
<path d="M314.917 161.228C315.953 161.253 316.939 161.686 317.663 162.435C318.386 163.183 318.792 164.185 318.792 165.23C318.792 166.277 318.386 167.279 317.663 168.028C316.939 168.776 315.953 169.209 314.917 169.234H161.633C160.579 169.234 159.568 168.811 158.823 168.06C158.078 167.308 157.659 166.29 157.658 165.228C157.662 164.166 158.081 163.15 158.826 162.4C159.571 161.652 160.58 161.228 161.633 161.228H314.917Z" fill="#CCEFF6"/>
<path d="M291.759 109.869C292.795 109.894 293.781 110.327 294.505 111.075C295.228 111.824 295.634 112.826 295.634 113.873C295.634 114.917 295.228 115.92 294.505 116.668C293.781 117.417 292.795 117.85 291.759 117.875H161.633C160.579 117.875 159.568 117.451 158.823 116.701C158.078 115.949 157.659 114.931 157.658 113.869C157.66 112.807 158.08 111.789 158.825 111.041C159.57 110.29 160.58 109.869 161.633 109.869H291.759Z" fill="#006B99"/>
<path d="M282.272 243.185L285.532 257.667H280.929H226.452H219.884L227.603 223.335L282.272 243.185Z" fill="#F7CEDC"/>
<path d="M277.81 223.335L282.272 243.185L227.601 223.335H277.81Z" fill="#006B99"/>
<path d="M260.885 144.108C261.921 144.135 262.906 144.568 263.629 145.315C264.354 146.063 264.759 147.068 264.759 148.112C264.759 149.157 264.354 150.161 263.629 150.908C262.906 151.656 261.921 152.089 260.885 152.116H161.633C160.579 152.114 159.568 151.693 158.823 150.941C158.078 150.19 157.659 149.17 157.658 148.108C157.66 147.046 158.08 146.03 158.825 145.28C159.57 144.53 160.58 144.108 161.633 144.108H260.885Z" fill="#006B99"/>
<path d="M245.448 75.6289C245.977 75.6158 246.504 75.7097 246.998 75.905C247.49 76.1003 247.939 76.3931 248.318 76.766C248.698 77.139 249 77.5848 249.206 78.077C249.41 78.5693 249.517 79.0984 249.517 79.6314C249.517 80.1663 249.41 80.6954 249.206 81.1879C249 81.6785 248.698 82.1249 248.318 82.4981C247.939 82.8714 247.49 83.1639 246.998 83.3582C246.504 83.5544 245.977 83.6487 245.448 83.6352H161.632C161.102 83.6487 160.576 83.5544 160.082 83.3582C159.589 83.1639 159.14 82.8714 158.761 82.4981C158.382 82.1249 158.08 81.6785 157.875 81.1879C157.669 80.6954 157.563 80.1663 157.563 79.6314C157.563 79.0984 157.669 78.5693 157.875 78.077C158.08 77.5848 158.382 77.139 158.761 76.766C159.14 76.3931 159.589 76.1003 160.082 75.905C160.576 75.7097 161.102 75.6158 161.632 75.6289H245.448Z" fill="#006B99"/>
<path d="M214.573 58.5079C215.626 58.5079 216.638 58.9299 217.382 59.6808C218.126 60.4317 218.544 61.4503 218.544 62.5124C218.544 63.5744 218.126 64.5928 217.382 65.3439C216.638 66.0948 215.626 66.5166 214.573 66.5166H161.633C160.579 66.516 159.568 66.0937 158.823 65.3424C158.078 64.5912 157.659 63.5723 157.658 62.5098C157.661 61.4486 158.081 60.4313 158.826 59.6812C159.57 58.9312 160.58 58.5093 161.633 58.5079H214.573Z" fill="#CCEFF6"/>
<path d="M214.573 178.346C215.626 178.346 216.638 178.769 217.382 179.52C218.126 180.27 218.544 181.29 218.544 182.352C218.544 183.412 218.126 184.432 217.382 185.182C216.638 185.932 215.626 186.356 214.573 186.356H161.633C160.579 186.354 159.568 185.93 158.823 185.18C158.078 184.428 157.659 183.408 157.658 182.346C157.662 181.286 158.081 180.268 158.826 179.52C159.571 178.769 160.58 178.348 161.633 178.346H214.573Z" fill="#006B99"/>
<path d="M199.136 92.7473C200.189 92.7473 201.201 93.1706 201.945 93.921C202.689 94.6713 203.109 95.691 203.109 96.7531C203.109 97.8151 202.689 98.8329 201.945 99.5833C201.201 100.336 200.189 100.757 199.136 100.757H161.633C160.579 100.755 159.568 100.332 158.823 99.5814C158.078 98.8291 157.659 97.8094 157.658 96.7473C157.662 95.6872 158.081 94.6694 158.826 93.921C159.571 93.1706 160.58 92.7492 161.633 92.7473H199.136Z" fill="#CCEFF6"/>
<path d="M191.417 126.981C192.47 126.981 193.481 127.402 194.226 128.153C194.97 128.905 195.39 129.923 195.39 130.985C195.39 132.047 194.97 133.065 194.226 133.817C193.481 134.567 192.47 134.989 191.417 134.989H161.633C160.579 134.989 159.568 134.565 158.823 133.813C158.078 133.061 157.659 132.043 157.658 130.981C157.662 129.919 158.081 128.903 158.826 128.153C159.571 127.404 160.58 126.981 161.633 126.981H191.417Z" fill="#CCEFF6"/>
<path d="M139.543 93.9786C140.066 94.1749 140.523 94.5193 140.859 94.9695C141.195 95.4197 141.397 95.9565 141.441 96.5183C141.484 97.0782 141.368 97.6419 141.105 98.1383C140.843 98.6347 140.445 99.0465 139.958 99.3235C139.958 99.16 139.958 98.9887 139.958 98.8175C139.958 98.4212 139.958 98.0248 139.927 97.6265V97.5342C139.876 96.3413 139.748 95.1542 139.543 93.9786Z" fill="#006B99"/>
<path d="M138.493 59.5274C139.078 59.5254 139.651 59.6988 140.139 60.0253C140.627 60.3518 141.007 60.817 141.233 61.3617C141.458 61.9064 141.518 62.5063 141.405 63.0854C141.292 63.6645 141.011 64.1969 140.597 64.615C140.184 65.0329 139.657 65.318 139.083 65.4338C138.509 65.5497 137.914 65.4912 137.373 65.2657C136.832 65.0402 136.369 64.6581 136.044 64.1675C135.718 63.6768 135.544 63.0998 135.544 62.5096C135.544 61.7203 135.855 60.9632 136.407 60.4043C136.96 59.8452 137.71 59.5299 138.493 59.5274Z" fill="#006B99"/>
<path d="M138.493 76.6488C139.078 76.6475 139.65 76.821 140.137 77.1475C140.624 77.4742 141.004 77.939 141.229 78.4828C141.453 79.0273 141.513 79.6276 141.4 80.2048C141.287 80.7839 141.006 81.3149 140.592 81.7324C140.179 82.1499 139.653 82.4347 139.079 82.5501C138.506 82.6655 137.911 82.6078 137.371 82.3827C136.83 82.1576 136.368 81.7747 136.043 81.2841C135.718 80.7954 135.544 80.2182 135.544 79.6295C135.544 78.8387 135.855 78.0828 136.408 77.5242C136.96 76.9655 137.71 76.6507 138.493 76.6488Z" fill="#006B99"/>
<path d="M138.493 110.889C139.277 110.889 140.029 111.202 140.583 111.762C141.137 112.32 141.449 113.078 141.449 113.869C141.449 114.658 141.137 115.416 140.583 115.976C140.029 116.534 139.277 116.847 138.493 116.847C137.863 116.834 137.254 116.618 136.752 116.234C136.25 115.851 135.881 115.316 135.697 114.708L135.292 114.45C135.989 113.359 136.615 112.224 137.167 111.052L137.298 111.112C137.544 110.867 138.291 110.889 138.493 110.889Z" fill="#006B99"/>
<path d="M138.493 145.126C139.078 145.124 139.651 145.297 140.139 145.625C140.627 145.952 141.007 146.415 141.233 146.962C141.458 147.506 141.518 148.105 141.405 148.684C141.292 149.263 141.011 149.796 140.597 150.213C140.184 150.633 139.657 150.917 139.083 151.033C138.509 151.148 137.914 151.091 137.373 150.866C136.832 150.639 136.369 150.258 136.044 149.767C135.718 149.276 135.544 148.699 135.544 148.108C135.544 147.32 135.855 146.562 136.407 146.004C136.96 145.444 137.71 145.128 138.493 145.126Z" fill="#006B99"/>
<path d="M138.493 162.248C139.078 162.246 139.65 162.419 140.137 162.746C140.624 163.073 141.004 163.537 141.229 164.082C141.453 164.626 141.513 165.226 141.4 165.803C141.287 166.383 141.006 166.914 140.592 167.331C140.179 167.749 139.653 168.033 139.079 168.149C138.506 168.264 137.911 168.207 137.371 167.981C136.83 167.756 136.368 167.373 136.043 166.883C135.718 166.394 135.544 165.817 135.544 165.228C135.544 164.437 135.855 163.681 136.408 163.123C136.96 162.563 137.71 162.25 138.493 162.248Z" fill="#006B99"/>
<path d="M138.493 179.366C139.078 179.364 139.651 179.537 140.139 179.864C140.627 180.191 141.008 180.657 141.233 181.201C141.458 181.746 141.518 182.346 141.404 182.925C141.291 183.504 141.01 184.037 140.597 184.455C140.183 184.872 139.656 185.157 139.082 185.272C138.507 185.388 137.912 185.33 137.371 185.103C136.83 184.878 136.368 184.495 136.043 184.004C135.717 183.514 135.544 182.937 135.544 182.346C135.544 181.557 135.855 180.801 136.408 180.241C136.96 179.683 137.71 179.368 138.493 179.366Z" fill="#006B99"/>
<path d="M122.012 126.995L126.306 129.042L126.089 129.507V131.993L117.074 143.601V129.507C118.77 128.772 120.419 127.933 122.012 126.995Z" fill="#006B99"/>
<path d="M107.317 132.707L107.401 133.09C103.412 142.209 98.3359 151.26 92.389 156.295C90.4583 157.928 88.6007 159.583 86.8164 161.259C86.1437 151.314 85.4187 141.251 84.7244 133.09C88.145 133.717 91.6148 134.032 95.0916 134.031C99.2022 134.036 103.301 133.592 107.317 132.707Z" fill="#006B99"/>
<path d="M79.353 178.294C80.8203 174.829 83.0825 171.764 85.9534 169.351C86.3924 169.011 86.8313 168.666 87.2798 168.339C94.3627 163.316 102.081 159.272 110.228 156.314C110.011 156.78 101.721 174.485 93.7682 181.247C91.9243 182.81 90.078 184.212 88.3341 185.576C86.5645 186.933 84.8907 188.412 83.3247 190.004C81.5961 191.72 80.2287 193.769 79.3045 196.031C78.3803 198.292 77.9181 200.718 77.9455 203.164V203.56H74.5439V203.164C74.5872 198.969 74.9748 194.787 75.7032 190.658C76.3971 186.398 77.6236 182.242 79.353 178.294Z" fill="#CCEFF6"/>
<path d="M89.1786 203.164V203.56H85.0422C84.841 199 84.2624 194.467 83.3128 190.004C84.8786 188.412 86.5526 186.933 88.3223 185.576C88.8541 194.604 89.1786 201.357 89.1786 203.164Z" fill="#006B99"/>
<path d="M87.2794 168.332C86.8309 168.666 86.392 169.011 85.953 169.351C83.0821 171.764 80.8199 174.829 79.3526 178.294C78.4341 176.851 77.2986 175.25 75.9866 173.469C72.938 169.313 68.9877 164.255 64.9349 158.635C60.0544 152.045 55.6978 145.076 51.9055 137.796C51.9055 137.796 51.8816 137.757 51.8435 137.688C51.2732 136.543 50.7318 135.408 50.2166 134.256C33.3346 96.7166 44.272 59.2869 44.272 59.2869C50.0595 64.6092 55.4896 70.3137 60.5265 76.3624C57.3623 79.1851 54.8127 82.6367 53.0381 86.502C51.2637 90.3673 50.303 94.5617 50.2166 98.8195C50.2166 115.466 64.9349 129.419 84.7246 133.092C85.4187 141.253 86.1439 151.316 86.8166 161.261C86.9717 163.633 87.1339 165.996 87.2794 168.332Z" fill="#CCEFF6"/>
<path d="M74.0435 176.424C74.0435 176.424 75.3103 184.028 75.7133 190.65C74.9851 194.779 74.5973 198.962 74.554 203.156V203.552H71.1642V203.156C72.3571 195.11 71.1332 186.052 71.1642 181.771C72.0239 179.935 72.9851 178.152 74.0435 176.424Z" fill="#006B99"/>
<path d="M75.9873 173.469C75.3099 174.431 74.661 175.422 74.0431 176.424C72.9849 178.152 72.0235 179.935 71.1639 181.771C68.0354 188.589 66.3907 196.003 66.3405 203.514V203.552H64.9808C64.8986 195.202 64.0432 186.879 62.4259 178.689C63.206 174.571 63.6186 169.902 64.1173 165.138C64.3415 162.991 64.5801 160.82 64.8734 158.681L64.9354 158.633C68.9884 164.259 72.9387 169.309 75.9873 173.469Z" fill="#CCEFF6"/>
<path d="M64.9805 203.56H58.9691C58.5756 182.939 44.7447 176.426 30.897 164.661C16.5843 152.512 1.68951 120.443 1.68951 120.443C16.5778 125.85 30.6472 133.319 43.4923 142.637C43.8924 142.979 44.3096 143.3 44.7422 143.599C54.7612 151.522 59.8638 165.84 62.4257 178.688C64.0435 186.881 64.8988 195.208 64.9805 203.56Z" fill="#CCEFF6"/>
<path d="M64.9355 158.635L64.8734 158.683C64.5801 160.824 64.3416 162.993 64.1173 165.142C62.7433 155.951 55.4413 151.064 44.7449 143.602C44.3276 143.275 43.9173 142.948 43.4927 142.64C33.7909 134.438 30.7591 114.431 30.7591 114.431C41.8658 121.015 51.0116 136.274 51.8441 137.69C51.8822 137.759 51.9061 137.798 51.9061 137.798C55.6986 145.078 60.0552 152.047 64.9355 158.635Z" fill="#006B99"/>
<path d="M117.081 129.507C118.774 128.772 120.421 127.933 122.012 126.995L126.306 129.042L147.298 139.002L133.701 116.77C134.271 116.016 134.813 115.247 135.306 114.45C136.004 113.359 136.63 112.222 137.181 111.05C138.937 107.389 139.884 103.389 139.958 99.3236C139.958 99.16 139.958 98.9888 139.958 98.8175C139.958 98.4212 139.958 98.0249 139.927 97.6266" stroke="#006B99" stroke-width="1.54342" stroke-linecap="round" stroke-linejoin="round"/>
<path d="M139.937 97.5342C139.883 96.3414 139.751 95.1543 139.543 93.9787C137.845 85.6247 133.032 78.2461 126.096 73.364C123.3 71.2747 120.275 69.5148 117.082 68.1186C110.14 65.0991 102.653 63.5628 95.0926 63.6068C82.3928 63.334 70.0552 67.8837 60.5273 76.3533C57.363 79.1754 54.8135 82.629 53.0389 86.4943C51.2645 90.3596 50.3038 94.552 50.2173 98.8118C50.2173 115.456 64.9356 129.409 84.7254 133.082C88.1459 133.709 91.6157 134.025 95.0926 134.023C99.2032 134.029 103.302 133.586 107.318 132.699C110.668 131.96 113.938 130.893 117.082 129.511" stroke="#006B99" stroke-width="1.54342" stroke-linecap="round" stroke-linejoin="round"/>
<path d="M359.225 58.5392L361.418 53.9962C360.444 52.7195 359.569 51.3721 358.794 49.9654C357.752 48.0817 356.918 46.0878 356.309 44.0203C355.555 41.5089 355.164 38.9003 355.151 36.2762C355.151 36.1992 355.151 36.1294 355.151 36.0501C355.149 34.1736 355.336 32.3018 355.708 30.4632C356.175 28.171 356.918 25.9445 357.918 23.8327C364.246 10.4032 380.708 0.831299 400.02 0.831299C424.797 0.831299 444.89 16.596 444.89 36.0501C444.89 55.5041 424.797 71.2641 400.02 71.2641C396.093 71.2707 392.175 70.8612 388.331 70.0424C385.249 69.4057 382.232 68.4832 379.318 67.2863C377.179 66.4178 375.106 65.3929 373.116 64.2198L352.124 73.2482L355.382 66.5142L359.238 58.5369" stroke="#006B99" stroke-width="1.54342" stroke-linecap="round" stroke-linejoin="round"/>
<path d="M379.217 176.605L365.794 172.022L371.452 188.168C369.696 190.467 368.261 192.999 367.19 195.693C365.866 199.008 365.185 202.546 365.183 206.119C365.231 212.324 367.236 218.354 370.908 223.335C378.587 234.073 393.245 241.334 410.062 241.334C434.84 241.334 454.931 225.567 454.931 206.119C454.931 186.673 434.84 170.908 410.062 170.908C402.598 170.869 395.207 172.364 388.335 175.304C386.551 176.078 384.816 176.961 383.141 177.95L379.217 176.605Z" stroke="#006B99" stroke-width="1.54342" stroke-linecap="round" stroke-linejoin="round"/>
<path d="M117.081 68.1179V37.637C117.081 33.9758 118.524 30.4645 121.092 27.8756C123.66 25.2868 127.142 23.8323 130.774 23.8323H357.922" stroke="#006B99" stroke-width="1.54342" stroke-linecap="round" stroke-linejoin="round"/>
<path d="M227.609 223.335H130.774C127.142 223.335 123.66 221.88 121.092 219.291C118.524 216.703 117.081 213.192 117.081 209.53V129.509" stroke="#006B99" stroke-width="1.54342" stroke-linecap="round" stroke-linejoin="round"/>
<path d="M370.902 223.335H354.462H277.81" stroke="#006B99" stroke-width="1.54342" stroke-linecap="round" stroke-linejoin="round"/>
<path d="M388.331 70.0497V87.9931V175.304" stroke="#006B99" stroke-width="1.54342" stroke-linecap="round" stroke-linejoin="round"/>
<path d="M126.096 73.3735V40.6967C126.097 37.9829 127.167 35.3803 129.07 33.4615C130.973 31.5425 133.555 30.4641 136.247 30.4635H355.708" stroke="#006B99" stroke-width="1.54342" stroke-linecap="round" stroke-linejoin="round"/>
<path d="M367.192 195.695H136.247C133.555 195.693 130.973 194.615 129.07 192.697C127.167 190.777 126.097 188.174 126.096 185.461V129.509" stroke="#006B99" stroke-width="1.54342" stroke-linecap="round" stroke-linejoin="round"/>
<path d="M379.316 67.2957V71.4034V176.301" stroke="#006B99" stroke-width="1.54342" stroke-linecap="round" stroke-linejoin="round"/>
<path d="M126.096 49.9651H358.799" stroke="#006B99" stroke-width="1.54342" stroke-linecap="round" stroke-linejoin="round"/>
<path d="M356.132 44.073H162.489V36.276H355.088" stroke="#006B99" stroke-width="1.54342" stroke-linecap="round" stroke-linejoin="round"/>
<path d="M260.229 209.513C260.229 211.014 259.788 212.48 258.963 213.727C258.137 214.973 256.963 215.947 255.589 216.522C254.215 217.097 252.704 217.247 251.244 216.957C249.784 216.664 248.444 215.943 247.391 214.883C246.339 213.823 245.622 212.472 245.33 211.002C245.04 209.53 245.187 208.006 245.755 206.621C246.324 205.234 247.288 204.049 248.524 203.216C249.761 202.381 251.213 201.936 252.702 201.934C254.696 201.934 256.61 202.733 258.021 204.153C259.433 205.575 260.227 207.502 260.229 209.513Z" stroke="#006B99" stroke-width="1.54342" stroke-linecap="round" stroke-linejoin="round"/>
<path d="M219.884 257.667L227.603 223.335H277.812L282.272 243.185L285.532 257.667" stroke="#006B99" stroke-width="1.54342" stroke-linecap="round" stroke-linejoin="round"/>
<path d="M280.929 257.665H226.452" stroke="#006B99" stroke-width="1.54342" stroke-linecap="round" stroke-linejoin="round"/>
<path d="M227.601 223.335L282.272 243.185" stroke="#006B99" stroke-width="1.54342" stroke-linecap="round" stroke-linejoin="round"/>
<path d="M199.113 257.665H211.016" stroke="#006B99" stroke-width="1.54342" stroke-linecap="round" stroke-linejoin="round"/>
<path d="M214.55 257.665H219.882H226.452" stroke="#006B99" stroke-width="1.54342" stroke-linecap="round" stroke-linejoin="round"/>
<path d="M29.3062 257.665H41.2096" stroke="#006B99" stroke-width="1.54342" stroke-linecap="round" stroke-linejoin="round"/>
<path d="M87.704 257.665H118.393" stroke="#006B99" stroke-width="1.54342" stroke-linecap="round" stroke-linejoin="round"/>
<path d="M44.7441 257.665H60.8437" stroke="#006B99" stroke-width="1.54342" stroke-linecap="round" stroke-linejoin="round"/>
<path d="M280.93 257.665H285.531H292.831" stroke="#006B99" stroke-width="1.54342" stroke-linecap="round" stroke-linejoin="round"/>
<path d="M296.365 257.665H308.268" stroke="#006B99" stroke-width="1.54342" stroke-linecap="round" stroke-linejoin="round"/>
<path d="M147.584 44.9774L155.48 40.3862L147.584 35.7855" stroke="#006B99" stroke-width="1.54342" stroke-linecap="round" stroke-linejoin="round"/>
<path d="M142.482 35.7855L134.579 40.3862L142.482 44.9774" stroke="#006B99" stroke-width="1.54342" stroke-linecap="round" stroke-linejoin="round"/>
<path d="M379.316 71.403L388.331 87.993" stroke="#006B99" stroke-width="1.54342" stroke-linecap="round" stroke-linejoin="round"/>
<path d="M362.143 195.693L354.464 223.335" stroke="#006B99" stroke-width="1.54342" stroke-linecap="round" stroke-linejoin="round"/>
<path d="M126.096 131.993L117.081 143.601" stroke="#006B99" stroke-width="1.54342" stroke-linecap="round" stroke-linejoin="round"/>
<path d="M87.704 257.665H60.8437C56.5739 257.665 52.4789 255.956 49.4597 252.913C46.4405 249.867 44.7441 245.74 44.7441 241.434V203.56H103.804V241.434C103.803 245.74 102.106 249.867 99.0874 252.911C96.0681 255.954 91.9735 257.665 87.704 257.665Z" stroke="#006B99" stroke-width="1.54342" stroke-linecap="round" stroke-linejoin="round"/>
<path d="M64.9805 203.56C64.8988 195.208 64.0435 186.881 62.4257 178.688C59.8638 165.84 54.7612 151.512 44.7447 143.599C44.3272 143.271 43.9169 142.944 43.4923 142.637C30.6472 133.319 16.5778 125.85 1.68951 120.443C1.68951 120.443 16.5868 152.512 30.897 164.661C44.7447 176.426 58.5684 182.939 58.9691 203.56" stroke="#006B99" stroke-width="1.54342" stroke-linecap="round" stroke-linejoin="round"/>
<path d="M71.1634 181.778C68.035 188.595 66.3902 196.01 66.3402 203.522" stroke="#006B99" stroke-width="1.54342" stroke-linecap="round" stroke-linejoin="round"/>
<path d="M75.987 173.469C75.3095 174.431 74.6607 175.422 74.0429 176.424C72.9845 178.152 72.0233 179.935 71.1636 181.771" stroke="#006B99" stroke-width="1.54342" stroke-linecap="round" stroke-linejoin="round"/>
<path d="M107.401 133.09C103.412 142.209 98.3362 151.26 92.3892 156.295C90.4587 157.929 88.6011 159.583 86.8168 161.259" stroke="#006B99" stroke-width="1.54342" stroke-linecap="round" stroke-linejoin="round"/>
<path d="M62.4259 178.688C63.206 174.571 63.6186 169.903 64.1173 165.138C64.3415 162.991 64.5801 160.822 64.8734 158.681" stroke="#006B99" stroke-width="1.54342" stroke-linecap="round" stroke-linejoin="round"/>
<path d="M110.244 156.295C110.02 156.776 101.731 174.473 93.7848 181.236C91.9407 182.798 90.0944 184.201 88.3507 185.565C86.5811 186.921 84.9072 188.401 83.3412 189.992C81.6126 191.708 80.2453 193.757 79.3209 196.018C78.3966 198.281 77.9344 200.707 77.9619 203.152" stroke="#006B99" stroke-width="1.54342" stroke-linecap="round" stroke-linejoin="round"/>
<path d="M87.2799 168.332C94.3628 163.31 102.081 159.266 110.228 156.307" stroke="#006B99" stroke-width="1.54342" stroke-linecap="round" stroke-linejoin="round"/>
<path d="M74.5439 203.164C74.5872 198.969 74.9748 194.787 75.7032 190.658C76.3977 186.4 77.6242 182.248 79.353 178.302C80.8203 174.835 83.0825 171.772 85.9534 169.359C86.3924 169.019 86.8313 168.674 87.2798 168.347" stroke="#006B99" stroke-width="1.54342" stroke-linecap="round" stroke-linejoin="round"/>
<path d="M83.3128 190.004C84.2624 194.467 84.841 199 85.0422 203.56" stroke="#006B99" stroke-width="1.54342" stroke-linecap="round" stroke-linejoin="round"/>
<path d="M51.9057 137.803C55.698 145.084 60.0548 152.053 64.9351 158.642C68.9904 164.262 72.9384 169.321 75.987 173.476C77.299 175.258 78.4345 176.866 79.3528 178.3" stroke="#006B99" stroke-width="1.54342" stroke-linecap="round" stroke-linejoin="round"/>
<path d="M60.5265 76.36C55.4896 70.3112 50.0595 64.6069 44.272 59.2845C44.272 59.2845 33.3346 96.7127 50.2166 134.254C50.7318 135.404 51.2732 136.54 51.8435 137.684" stroke="#006B99" stroke-width="1.54342" stroke-linecap="round" stroke-linejoin="round"/>
<path d="M87.2793 168.347C87.1337 166.004 86.9715 163.639 86.8166 161.267C86.1439 151.322 85.4187 141.259 84.7244 133.095" stroke="#006B99" stroke-width="1.54342" stroke-linecap="round" stroke-linejoin="round"/>
<path d="M89.1784 203.164C89.1784 201.357 88.854 194.604 88.3292 185.576" stroke="#006B99" stroke-width="1.54342" stroke-linecap="round" stroke-linejoin="round"/>
<path d="M51.9061 137.803C51.9061 137.803 51.8822 137.765 51.8441 137.694C51.0116 136.278 41.8658 121.019 30.7591 114.437C30.7591 114.437 33.7909 134.442 43.4927 142.644C43.8932 142.987 44.3112 143.308 44.7449 143.606C55.4413 151.062 62.7433 155.956 64.1173 165.145" stroke="#006B99" stroke-width="1.54342" stroke-linecap="round" stroke-linejoin="round"/>
<path d="M71.1642 181.771C71.1332 186.052 72.3569 195.11 71.1642 203.156" stroke="#006B99" stroke-width="1.54342" stroke-linecap="round" stroke-linejoin="round"/>
<path d="M74.0425 176.424C74.0425 176.424 75.3091 184.028 75.7124 190.65" stroke="#006B99" stroke-width="1.54342" stroke-linecap="round" stroke-linejoin="round"/>
<path d="M151.529 55.5281V187.133" stroke="#006B99" stroke-width="1.54342" stroke-linecap="round" stroke-linejoin="round"/>
<path d="M214.573 66.5166H161.633C160.579 66.516 159.568 66.0937 158.823 65.3424C158.078 64.5912 157.659 63.5723 157.658 62.5098C157.661 61.4486 158.081 60.4313 158.826 59.6812C159.57 58.9312 160.58 58.5093 161.633 58.5079H214.573C215.626 58.5079 216.638 58.9299 217.382 59.6808C218.126 60.4317 218.544 61.4503 218.544 62.5124C218.544 63.5744 218.126 64.5928 217.382 65.3439C216.638 66.0948 215.626 66.5166 214.573 66.5166Z" stroke="#006B99" stroke-width="1.54342" stroke-linecap="round" stroke-linejoin="round"/>
<path d="M359.225 58.5393C359.111 58.5393 359.017 58.5079 358.91 58.5079H236.502C235.448 58.5079 234.439 58.9299 233.693 59.6808C232.948 60.4317 232.53 61.4503 232.53 62.5124C232.53 63.5744 232.948 64.5928 233.693 65.3439C234.439 66.0948 235.448 66.5166 236.502 66.5166H355.366L359.225 58.5393Z" stroke="#006B99" stroke-width="1.54342" stroke-linecap="round" stroke-linejoin="round"/>
<path d="M141.449 62.5095C141.448 63.0981 141.274 63.6732 140.949 64.1623C140.624 64.6511 140.163 65.0319 139.623 65.2566C139.084 65.4814 138.49 65.5398 137.918 65.4246C137.345 65.3093 136.819 65.0256 136.407 64.6092C135.994 64.1928 135.713 63.6626 135.599 63.0854C135.485 62.508 135.544 61.9098 135.767 61.3659C135.99 60.8222 136.369 60.3572 136.854 60.0301C137.339 59.7028 137.91 59.5279 138.493 59.5273C138.882 59.5268 139.267 59.6035 139.626 59.7532C139.985 59.9029 140.311 60.1224 140.586 60.3995C140.86 60.6767 141.078 61.0057 141.226 61.3678C141.374 61.7299 141.45 62.1178 141.449 62.5095Z" stroke="#006B99" stroke-width="1.54342" stroke-linecap="round" stroke-linejoin="round"/>
<path d="M245.448 83.6352H161.632C161.102 83.6487 160.576 83.5544 160.082 83.3582C159.589 83.1639 159.14 82.8714 158.761 82.4981C158.382 82.1249 158.08 81.6785 157.875 81.1879C157.669 80.6954 157.563 80.1663 157.563 79.6314C157.563 79.0984 157.669 78.5693 157.875 78.077C158.08 77.5848 158.382 77.139 158.761 76.766C159.14 76.3931 159.589 76.1003 160.082 75.905C160.576 75.7097 161.102 75.6158 161.632 75.6289H245.448C245.977 75.6158 246.504 75.7097 246.998 75.905C247.49 76.1003 247.939 76.3931 248.318 76.766C248.698 77.139 249 77.5848 249.206 78.077C249.41 78.5693 249.517 79.0984 249.517 79.6314C249.517 80.1663 249.41 80.6954 249.206 81.1879C249 81.6785 248.698 82.1249 248.318 82.4981C247.939 82.8714 247.49 83.1639 246.998 83.3582C246.504 83.5544 245.977 83.6487 245.448 83.6352Z" stroke="#006B99" stroke-width="1.54342" stroke-linecap="round" stroke-linejoin="round"/>
<path d="M358.908 83.6352H267.373C266.589 83.6372 265.82 83.4024 265.165 82.9638C264.513 82.5232 264.001 81.8979 263.702 81.1667C263.4 80.4337 263.322 79.6295 263.476 78.8522C263.631 78.0751 264.009 77.3618 264.566 76.8025C264.933 76.4287 265.371 76.1324 265.852 75.931C266.335 75.7293 266.852 75.6268 267.373 75.6289H358.908C359.439 75.6158 359.965 75.7097 360.458 75.905C360.952 76.1003 361.4 76.3931 361.78 76.766C362.16 77.139 362.46 77.5848 362.666 78.077C362.872 78.5693 362.979 79.0984 362.979 79.6314C362.979 80.1663 362.872 80.6954 362.666 81.1879C362.46 81.6785 362.16 82.1249 361.78 82.4981C361.4 82.8714 360.952 83.1639 360.458 83.3582C359.965 83.5544 359.439 83.6487 358.908 83.6352Z" stroke="#006B99" stroke-width="1.54342" stroke-linecap="round" stroke-linejoin="round"/>
<path d="M141.449 79.6295C141.449 80.2182 141.275 80.7935 140.95 81.2822C140.626 81.7709 140.164 82.1518 139.625 82.3769C139.085 82.6021 138.492 82.6617 137.919 82.5463C137.347 82.4308 136.821 82.148 136.408 81.7324C135.995 81.3149 135.714 80.7858 135.599 80.2086C135.485 79.6295 135.544 79.0311 135.767 78.4885C135.99 77.944 136.368 77.479 136.854 77.1517C137.339 76.8243 137.909 76.6494 138.493 76.6488C138.882 76.6482 139.266 76.7248 139.625 76.8745C139.984 77.024 140.31 77.2433 140.585 77.5202C140.859 77.7971 141.077 78.1259 141.225 78.4885C141.374 78.8502 141.45 79.237 141.449 79.6295Z" stroke="#006B99" stroke-width="1.54342" stroke-linecap="round" stroke-linejoin="round"/>
<path d="M199.136 100.766H161.633C160.579 100.765 159.568 100.341 158.823 99.5909C158.078 98.8386 157.659 97.8189 157.658 96.7568C157.662 95.6948 158.081 94.6789 158.826 93.9305C159.571 93.1801 160.58 92.7588 161.633 92.7568H199.136C200.189 92.7568 201.201 93.1782 201.945 93.9305C202.689 94.6808 203.109 95.6986 203.109 96.7607C203.109 97.8227 202.689 98.8425 201.945 99.5928C201.201 100.343 200.189 100.766 199.136 100.766Z" stroke="#006B99" stroke-width="1.54342" stroke-linecap="round" stroke-linejoin="round"/>
<path d="M358.91 100.766H221.063C220.01 100.765 219 100.341 218.254 99.589C217.51 98.8386 217.09 97.8189 217.09 96.7568C217.094 95.6967 217.514 94.6808 218.258 93.9305C219.004 93.182 220.012 92.7588 221.063 92.7568H358.91C359.964 92.7568 360.973 93.1782 361.717 93.9305C362.463 94.6808 362.881 95.6986 362.881 96.7607C362.881 97.8227 362.463 98.8425 361.717 99.5928C360.973 100.343 359.964 100.766 358.91 100.766Z" stroke="#006B99" stroke-width="1.54342" stroke-linecap="round" stroke-linejoin="round"/>
<path d="M139.967 98.8175C139.967 98.9887 139.967 99.16 139.95 99.3235C140.437 99.0465 140.835 98.6347 141.098 98.1383C141.361 97.6419 141.477 97.0782 141.433 96.5183C141.39 95.9565 141.188 95.4197 140.852 94.9695C140.515 94.5193 140.059 94.1749 139.535 93.9786H139.519C139.73 95.158 139.867 96.3471 139.929 97.5438V97.64C139.958 98.0248 139.967 98.4212 139.967 98.8175Z" stroke="#006B99" stroke-width="1.54342" stroke-linecap="round" stroke-linejoin="round"/>
<path d="M291.759 117.875H161.633C160.579 117.875 159.568 117.451 158.823 116.701C158.078 115.949 157.659 114.931 157.658 113.869C157.66 112.807 158.08 111.789 158.825 111.041C159.57 110.29 160.58 109.869 161.633 109.869H291.759C292.795 109.894 293.781 110.327 294.505 111.075C295.228 111.824 295.634 112.826 295.634 113.873C295.634 114.917 295.228 115.92 294.505 116.668C293.781 117.417 292.795 117.85 291.759 117.875Z" stroke="#006B99" stroke-width="1.54342" stroke-linecap="round" stroke-linejoin="round"/>
<path d="M358.908 117.875H313.686C312.63 117.875 311.621 117.453 310.875 116.701C310.13 115.951 309.712 114.931 309.711 113.869C309.712 112.807 310.132 111.789 310.877 111.041C311.623 110.29 312.632 109.869 313.686 109.869H358.908C359.439 109.855 359.966 109.95 360.458 110.146C360.952 110.34 361.401 110.633 361.78 111.006C362.158 111.379 362.46 111.826 362.666 112.316C362.872 112.809 362.977 113.338 362.977 113.873C362.977 114.406 362.872 114.935 362.666 115.427C362.46 115.92 362.158 116.364 361.78 116.738C361.401 117.111 360.952 117.403 360.458 117.6C359.966 117.794 359.439 117.888 358.908 117.875Z" stroke="#006B99" stroke-width="1.54342" stroke-linecap="round" stroke-linejoin="round"/>
<path d="M137.303 111.108C137.542 110.867 138.291 110.885 138.496 110.885C139.28 110.885 140.032 111.198 140.586 111.756C141.14 112.316 141.451 113.074 141.451 113.863C141.451 114.654 141.14 115.412 140.586 115.972C140.032 116.53 139.28 116.843 138.496 116.843C137.866 116.828 137.256 116.614 136.755 116.23C136.253 115.845 135.884 115.312 135.7 114.704" stroke="#006B99" stroke-width="1.54342" stroke-linecap="round" stroke-linejoin="round"/>
<path d="M191.417 134.996H161.633C160.579 134.995 159.568 134.571 158.823 133.821C158.078 133.069 157.659 132.049 157.658 130.987C157.662 129.927 158.081 128.909 158.826 128.16C159.571 127.41 160.58 126.989 161.633 126.987H191.417C192.47 126.987 193.481 127.41 194.226 128.16C194.97 128.911 195.39 129.931 195.39 130.993C195.39 132.055 194.97 133.072 194.226 133.823C193.481 134.575 192.47 134.996 191.417 134.996Z" stroke="#006B99" stroke-width="1.54342" stroke-linecap="round" stroke-linejoin="round"/>
<path d="M358.91 134.996H213.346C212.292 134.995 211.281 134.571 210.537 133.821C209.79 133.069 209.371 132.051 209.371 130.987C209.374 129.927 209.794 128.911 210.54 128.16C211.285 127.412 212.294 126.989 213.346 126.987H358.91C359.964 126.987 360.973 127.41 361.717 128.16C362.464 128.911 362.881 129.931 362.881 130.993C362.881 132.055 362.464 133.072 361.717 133.823C360.973 134.575 359.964 134.996 358.91 134.996Z" stroke="#006B99" stroke-width="1.54342" stroke-linecap="round" stroke-linejoin="round"/>
<path d="M260.885 152.116H161.633C160.579 152.114 159.568 151.693 158.823 150.941C158.078 150.19 157.659 149.17 157.658 148.108C157.66 147.046 158.08 146.03 158.825 145.28C159.57 144.53 160.58 144.108 161.633 144.108H260.885C261.921 144.135 262.906 144.568 263.629 145.315C264.354 146.063 264.759 147.068 264.759 148.112C264.759 149.157 264.354 150.161 263.629 150.908C262.906 151.656 261.921 152.089 260.885 152.116Z" stroke="#006B99" stroke-width="1.54342" stroke-linecap="round" stroke-linejoin="round"/>
<path d="M358.908 152.116H282.812C281.759 152.114 280.749 151.693 280.003 150.941C279.257 150.19 278.837 149.17 278.837 148.108C278.839 147.046 279.261 146.03 280.005 145.28C280.751 144.532 281.761 144.11 282.812 144.108H358.908C359.944 144.135 360.931 144.568 361.654 145.315C362.378 146.063 362.784 147.068 362.784 148.112C362.784 149.157 362.378 150.161 361.654 150.908C360.931 151.656 359.944 152.089 358.908 152.116Z" stroke="#006B99" stroke-width="1.54342" stroke-linecap="round" stroke-linejoin="round"/>
<path d="M141.449 148.108C141.448 148.697 141.274 149.272 140.949 149.761C140.624 150.25 140.163 150.631 139.623 150.856C139.084 151.081 138.49 151.139 137.918 151.023C137.345 150.908 136.819 150.625 136.407 150.208C135.994 149.792 135.713 149.261 135.599 148.684C135.485 148.106 135.544 147.508 135.767 146.966C135.99 146.421 136.369 145.955 136.854 145.628C137.339 145.301 137.91 145.126 138.493 145.126C138.882 145.126 139.267 145.203 139.626 145.351C139.985 145.501 140.311 145.721 140.586 145.998C140.86 146.275 141.078 146.606 141.226 146.967C141.374 147.329 141.45 147.718 141.449 148.108Z" stroke="#006B99" stroke-width="1.54342" stroke-linecap="round" stroke-linejoin="round"/>
<path d="M314.917 169.234H161.633C160.579 169.234 159.568 168.811 158.823 168.06C158.078 167.308 157.659 166.29 157.658 165.228C157.662 164.166 158.081 163.15 158.826 162.4C159.571 161.652 160.58 161.228 161.633 161.228H314.917C315.953 161.253 316.939 161.686 317.663 162.435C318.386 163.183 318.792 164.185 318.792 165.23C318.792 166.277 318.386 167.279 317.663 168.028C316.939 168.776 315.953 169.209 314.917 169.234Z" stroke="#006B99" stroke-width="1.54342" stroke-linecap="round" stroke-linejoin="round"/>
<path d="M358.91 169.234H336.842C335.788 169.234 334.777 168.811 334.033 168.06C333.288 167.308 332.869 166.29 332.869 165.226C332.87 164.166 333.29 163.15 334.036 162.4C334.781 161.65 335.79 161.228 336.842 161.228H358.91C359.439 161.215 359.967 161.309 360.46 161.503C360.952 161.7 361.402 161.992 361.78 162.365C362.16 162.739 362.462 163.183 362.668 163.676C362.874 164.168 362.979 164.697 362.979 165.23C362.979 165.765 362.874 166.294 362.668 166.787C362.462 167.277 362.16 167.724 361.78 168.097C361.402 168.47 360.952 168.763 360.46 168.957C359.967 169.153 359.439 169.247 358.91 169.234Z" stroke="#006B99" stroke-width="1.54342" stroke-linecap="round" stroke-linejoin="round"/>
<path d="M141.449 165.221C141.449 165.809 141.275 166.385 140.95 166.873C140.626 167.362 140.164 167.745 139.625 167.97C139.085 168.195 138.492 168.253 137.919 168.137C137.347 168.024 136.821 167.739 136.408 167.323C135.995 166.908 135.714 166.377 135.599 165.8C135.485 165.222 135.544 164.624 135.767 164.08C135.99 163.535 136.368 163.071 136.854 162.742C137.339 162.415 137.909 162.24 138.493 162.24C138.882 162.24 139.266 162.317 139.625 162.465C139.984 162.615 140.31 162.835 140.585 163.112C140.859 163.389 141.077 163.718 141.225 164.08C141.374 164.441 141.45 164.828 141.449 165.221Z" stroke="#006B99" stroke-width="1.54342" stroke-linecap="round" stroke-linejoin="round"/>
<path d="M214.573 186.356H161.633C160.579 186.354 159.568 185.93 158.823 185.18C158.078 184.428 157.659 183.408 157.658 182.346C157.662 181.286 158.081 180.268 158.826 179.52C159.571 178.769 160.58 178.348 161.633 178.346H214.573C215.626 178.346 216.638 178.769 217.382 179.52C218.126 180.27 218.544 181.29 218.544 182.352C218.544 183.412 218.126 184.432 217.382 185.182C216.638 185.932 215.626 186.356 214.573 186.356Z" stroke="#006B99" stroke-width="1.54342" stroke-linecap="round" stroke-linejoin="round"/>
<path d="M358.91 186.356H236.502C235.448 186.354 234.437 185.93 233.691 185.18C232.947 184.428 232.527 183.408 232.525 182.346C232.531 181.286 232.95 180.268 233.697 179.52C234.441 178.769 235.45 178.348 236.502 178.346H358.91C359.964 178.346 360.973 178.769 361.717 179.52C362.464 180.27 362.882 181.29 362.882 182.352C362.882 183.412 362.464 184.432 361.717 185.182C360.973 185.932 359.964 186.356 358.91 186.356Z" stroke="#006B99" stroke-width="1.54342" stroke-linecap="round" stroke-linejoin="round"/>
<path d="M141.449 182.346C141.449 182.935 141.275 183.51 140.95 183.999C140.626 184.489 140.164 184.87 139.625 185.095C139.085 185.32 138.492 185.378 137.919 185.265C137.347 185.149 136.821 184.865 136.408 184.449C135.995 184.033 135.714 183.502 135.599 182.925C135.485 182.348 135.544 181.75 135.767 181.205C135.99 180.661 136.368 180.197 136.854 179.87C137.339 179.541 137.909 179.368 138.493 179.366C138.882 179.366 139.266 179.443 139.625 179.593C139.984 179.743 140.31 179.962 140.584 180.239C140.858 180.514 141.076 180.843 141.225 181.205C141.373 181.567 141.449 181.955 141.449 182.346Z" stroke="#006B99" stroke-width="1.54342" stroke-linecap="round" stroke-linejoin="round"/>
<path d="M85.4498 98.6309C85.3567 98.6309 85.266 98.6309 85.1731 98.6309C85.08 98.6309 84.9798 98.6309 84.8868 98.6309C82.021 98.4828 79.3259 97.2129 77.3761 95.0908C75.4263 92.9686 74.3761 90.1615 74.4496 87.2697C74.5231 84.3779 75.7143 81.6285 77.7692 79.6102C79.8241 77.5906 82.5804 76.461 85.4498 76.4614" stroke="#006B99" stroke-width="2.31632" stroke-linecap="round" stroke-linejoin="round"/>
<path d="M69.8279 98.6155H85.4503C85.3572 98.6155 85.2666 98.6155 85.1736 98.6155C82.2886 98.7001 79.5521 99.9257 77.5543 102.025C75.5566 104.126 74.4574 106.933 74.4936 109.842C74.5299 112.751 75.6988 115.531 77.7484 117.58C79.798 119.627 82.5641 120.784 85.4503 120.795" stroke="#006B99" stroke-width="2.31632" stroke-linecap="round" stroke-linejoin="round"/>
<path d="M105.202 98.6309C105.295 98.6309 105.395 98.6309 105.488 98.6309C105.581 98.6309 105.674 98.6309 105.765 98.6309C108.63 98.4828 111.325 97.2129 113.275 95.0908C115.225 92.9686 116.275 90.1615 116.202 87.2697C116.128 84.3779 114.937 81.6285 112.882 79.6102C110.827 77.5906 108.071 76.461 105.202 76.4614" stroke="#006B99" stroke-width="2.31632" stroke-linecap="round" stroke-linejoin="round"/>
<path d="M120.824 98.6155H105.202C105.295 98.6155 105.395 98.6155 105.488 98.6155C108.373 98.7001 111.11 99.9257 113.108 102.027C115.106 104.128 116.204 106.937 116.167 109.848C116.129 112.757 114.959 115.537 112.907 117.584C110.856 119.631 108.089 120.786 105.202 120.795" stroke="#006B99" stroke-width="2.31632" stroke-linecap="round" stroke-linejoin="round"/>
<path d="M409.495 49.0224L430.466 36.8218L409.495 24.6117" stroke="#006B99" stroke-width="2.31632" stroke-linecap="round" stroke-linejoin="round"/>
<path d="M387.969 24.6117L366.998 36.8218L387.969 49.0224" stroke="#006B99" stroke-width="2.31632" stroke-linecap="round" stroke-linejoin="round"/>
<path d="M404.703 19.0946L392.167 54.3688" stroke="#006B99" stroke-width="1.54342" stroke-linecap="round" stroke-linejoin="round"/>
<path d="M386.139 220.641L389.536 210.244L397.595 185.576L405.659 210.244L409.056 220.641" stroke="#006B99" stroke-width="2.31632" stroke-linecap="round" stroke-linejoin="round"/>
<path d="M389.536 210.244H405.659" stroke="#006B99" stroke-width="2.31632" stroke-linecap="round" stroke-linejoin="round"/>
<path d="M426.506 214.588C424.293 219.373 420.146 222.152 417.26 220.797C414.373 219.443 413.835 214.456 416.049 209.663C418.262 204.868 422.4 202.098 425.295 203.452C426.184 204.003 426.9 204.799 427.356 205.746C427.812 206.692 427.991 207.751 427.873 208.797C427.837 210.804 427.371 212.78 426.506 214.588Z" stroke="#006B99" stroke-width="1.54342" stroke-linecap="round" stroke-linejoin="round"/>
<path d="M427.867 208.726C427.867 208.751 427.867 208.774 427.867 208.797C428.291 213.007 425.737 224.097 432.399 219.583" stroke="#006B99" stroke-width="1.54342" stroke-linecap="round" stroke-linejoin="round"/>
</svg>
